<svg width="202" height="42" viewBox="0 0 202 42" fill="none" xmlns="http://www.w3.org/2000/svg">
<circle cx="189.5" cy="12.5" r="12.5" fill="#F08733"/>
<path d="M15.7471 38H2.43164V16.7305H6.81152V34.5137H15.7471V38ZM25.9834 25.373H34.3623V28.6982H25.9834V34.6162H35.5635V38H21.3984V16.7305H35.2559V20.1143H25.9834V25.373ZM56.0977 20.2168H50.3408V38H45.7559V20.2168H39.7793V16.7305H56.0977V20.2168ZM70.3184 16.4229C73.6191 16.4229 76.1436 17.3604 77.8916 19.2354C79.6396 21.1006 80.5137 23.7764 80.5137 27.2627C80.5137 30.8271 79.6445 33.5518 77.9062 35.4365C76.168 37.3213 73.6387 38.2637 70.3184 38.2637C66.9785 38.2637 64.4443 37.3262 62.7158 35.4512C60.9873 33.5664 60.123 30.8369 60.123 27.2627C60.123 23.7861 60.9971 21.1104 62.7451 19.2354C64.4932 17.3604 67.0176 16.4229 70.3184 16.4229ZM70.3184 20.0264C68.502 20.0264 67.1348 20.6367 66.2168 21.8574C65.3086 23.0781 64.8545 24.8799 64.8545 27.2627C64.8545 29.6846 65.3135 31.5254 66.2314 32.7852C67.1592 34.0449 68.5215 34.6748 70.3184 34.6748C72.1152 34.6748 73.4727 34.0449 74.3906 32.7852C75.3184 31.5254 75.7822 29.6846 75.7822 27.2627C75.7822 24.8994 75.3184 23.1025 74.3906 21.8721C73.4727 20.6416 72.1152 20.0264 70.3184 20.0264ZM93.8115 16.4668C95.5693 16.457 97.5469 16.8428 99.7441 17.624L98.8213 21.1396C96.7803 20.417 95.1201 20.0557 93.8408 20.0557C92.8057 20.0557 91.9902 20.2607 91.3945 20.6709C90.7988 21.0811 90.501 21.6377 90.501 22.3408C90.501 23.1025 90.7744 23.708 91.3213 24.1572C91.8779 24.6064 92.8887 25.0215 94.3535 25.4023C96.5117 25.959 98.0449 26.7305 98.9531 27.7168C99.8613 28.6934 100.315 30.041 100.315 31.7598C100.315 33.8398 99.6123 35.4365 98.2061 36.5498C96.8096 37.6533 94.8125 38.2051 92.2148 38.2051C90.0957 38.2051 87.8252 37.7266 85.4033 36.7695L86.4873 33.3564C87.8252 33.835 88.9189 34.1719 89.7686 34.3672C90.6182 34.5527 91.4238 34.6455 92.1855 34.6455C93.2891 34.6455 94.1387 34.4111 94.7344 33.9424C95.3398 33.4639 95.6426 32.8047 95.6426 31.9648C95.6426 31.4277 95.5156 30.9785 95.2617 30.6172C95.0078 30.2559 94.5781 29.9336 93.9727 29.6504C93.3672 29.3574 92.4932 29.0693 91.3506 28.7861C89.4463 28.3271 88.0547 27.6143 87.1758 26.6475C86.2969 25.6807 85.8574 24.4062 85.8574 22.8242C85.8574 20.8027 86.5508 19.2402 87.9375 18.1367C89.334 17.0234 91.292 16.4668 93.8115 16.4668ZM120.117 20.2168H114.36V38H109.775V20.2168H103.799V16.7305H120.117V20.2168ZM134.338 16.4229C137.639 16.4229 140.163 17.3604 141.911 19.2354C143.659 21.1006 144.533 23.7764 144.533 27.2627C144.533 30.8271 143.664 33.5518 141.926 35.4365C140.188 37.3213 137.658 38.2637 134.338 38.2637C130.998 38.2637 128.464 37.3262 126.735 35.4512C125.007 33.5664 124.143 30.8369 124.143 27.2627C124.143 23.7861 125.017 21.1104 126.765 19.2354C128.513 17.3604 131.037 16.4229 134.338 16.4229ZM134.338 20.0264C132.521 20.0264 131.154 20.6367 130.236 21.8574C129.328 23.0781 128.874 24.8799 128.874 27.2627C128.874 29.6846 129.333 31.5254 130.251 32.7852C131.179 34.0449 132.541 34.6748 134.338 34.6748C136.135 34.6748 137.492 34.0449 138.41 32.7852C139.338 31.5254 139.802 29.6846 139.802 27.2627C139.802 24.8994 139.338 23.1025 138.41 21.8721C137.492 20.6416 136.135 20.0264 134.338 20.0264ZM155.575 38H151.049V16.7305H158.344C161 16.7305 163.036 17.2969 164.452 18.4297C165.878 19.5527 166.591 21.1982 166.591 23.3662C166.591 24.7041 166.249 25.8613 165.565 26.8379C164.882 27.8145 163.91 28.5664 162.65 29.0938L167.309 38H162.416L158.52 29.8994H155.575V38ZM158.153 26.6035C159.472 26.6035 160.443 26.3398 161.068 25.8125C161.703 25.2754 162.021 24.46 162.021 23.3662C162.021 22.2432 161.703 21.4229 161.068 20.9053C160.443 20.3779 159.472 20.1143 158.153 20.1143H155.575V26.6035H158.153ZM177.97 25.373H186.349V28.6982H177.97V34.6162H187.55V38H173.385V16.7305H187.242V20.1143H177.97V25.373Z" fill="#F1F1F1"/>
</svg>
