<svg width="100" height="94" viewBox="0 0 100 94" fill="none" xmlns="http://www.w3.org/2000/svg">
<path d="M99.5 55.5C99.5 76.3732 77.4674 93.5 50 93.5C22.5326 93.5 0.5 76.3732 0.5 55.5C0.5 34.6268 22.5326 17.5 50 17.5C77.4674 17.5 99.5 34.6268 99.5 55.5Z" stroke="white"/>
<path d="M49.2929 60.7071C49.6834 61.0976 50.3166 61.0976 50.7071 60.7071L57.0711 54.3432C57.4616 53.9526 57.4616 53.3195 57.0711 52.9289C56.6805 52.5384 56.0474 52.5384 55.6569 52.9289L50 58.5858L44.3431 52.9289C43.9526 52.5384 43.3195 52.5384 42.9289 52.9289C42.5384 53.3195 42.5384 53.9526 42.9289 54.3432L49.2929 60.7071ZM49 4.37114e-08L49 60L51 60L51 -4.37114e-08L49 4.37114e-08Z" fill="white"/>
</svg>
