<svg width="24" height="24" viewBox="0 0 24 24" fill="none" xmlns="http://www.w3.org/2000/svg">
<path d="M22.8338 17.3302V20.5802C22.835 20.882 22.7732 21.1806 22.6523 21.457C22.5315 21.7335 22.3542 21.9816 22.1319 22.1856C21.9096 22.3896 21.6471 22.5449 21.3613 22.6415C21.0755 22.7382 20.7726 22.7741 20.4721 22.7469C17.1385 22.3847 13.9364 21.2456 11.123 19.4211C8.50544 17.7578 6.28624 15.5386 4.62296 12.9211C2.7921 10.0949 1.65272 6.87716 1.29712 3.52858C1.27005 3.229 1.30565 2.92707 1.40167 2.64201C1.49768 2.35694 1.65199 2.09499 1.85479 1.87284C2.05758 1.65068 2.30441 1.47318 2.57956 1.35165C2.85472 1.23011 3.15216 1.1672 3.45296 1.16691H6.70296C7.22871 1.16174 7.7384 1.34792 8.13703 1.69074C8.53567 2.03357 8.79604 2.50965 8.86962 3.03025C9.0068 4.07032 9.26119 5.09154 9.62796 6.07441C9.77371 6.46217 9.80526 6.88357 9.71886 7.2887C9.63245 7.69383 9.43173 8.0657 9.14046 8.36025L7.76462 9.73608C9.30681 12.4483 11.5524 14.6939 14.2646 16.2361L15.6405 14.8602C15.935 14.569 16.3069 14.3683 16.712 14.2818C17.1171 14.1954 17.5385 14.227 17.9263 14.3727C18.9092 14.7395 19.9304 14.9939 20.9705 15.1311C21.4967 15.2053 21.9773 15.4704 22.3209 15.8759C22.6644 16.2813 22.847 16.799 22.8338 17.3302Z" stroke="white" stroke-width="2" stroke-linecap="round" stroke-linejoin="round"/>
</svg>
